<svg xmlns="http://www.w3.org/2000/svg" width="52" height="34"><path fill="#f8f8f8" d="M50.35 20.635h-.001L21.881 31.162a2.284 2.284 0 01-1.75-.067 2.273 2.273 0 01-1.19-1.285l-5.839-15.773a2.271 2.271 0 01.067-1.75 2.273 2.273 0 011.286-1.19L42.922.572a2.276 2.276 0 011.75.067c.556.256.98.712 1.191 1.285l5.838 15.773a2.29 2.29 0 01-1.352 2.94zm-32.743-8.264l14.92 3.836 8.83-12.618zm9.732 4.864L15.61 14.22l5.064 13.682zm20.148 2.02L35.76 15.576l-1.811 2.591a1.147 1.147 0 01-1.224.452l-3.061-.787-6.51 10.42zm1.657-1.879L44.078 3.692l-6.94 9.92zm-35.8 14.217L9.03 33.188a1.141 1.141 0 01-1.47-.676c-.22-.592.083-1.25.676-1.47l4.312-1.594a1.145 1.145 0 01.794 2.145zM7.506 20.974l-2.663.985a1.141 1.141 0 01-1.47-.676c-.22-.593.084-1.25.676-1.47l2.662-.984a1.145 1.145 0 01.795 2.145zm-3.3 8.665l-1.979.732a1.145 1.145 0 01-.794-2.146l1.978-.731a1.145 1.145 0 01.794 2.145z"/></svg>