<svg xmlns="http://www.w3.org/2000/svg" width="40" height="52"><path fill="#f8f8f8" d="M38.836 51.017a1.262 1.262 0 01-1.417.27l-8.453-3.766-8.452 3.767c-.327.145-.7.145-1.027 0l-8.453-3.767-8.453 3.767a1.262 1.262 0 01-1.655-1.695l6.747-14.288c.13-.274.352-.492.628-.615l3.376-1.504-5.816-9.759a15.996 15.996 0 01-1.782-7.424c.025-4.178 1.67-8.125 4.631-11.114C11.672 1.899 15.601.22 19.775.163a15.8 15.8 0 0111.404 4.588A15.832 15.832 0 0135.921 16.1a15.778 15.778 0 01-1.782 7.327l-5.817 9.759 3.357 1.496c.28.119.513.337.648.623l6.747 14.288c.226.478.13 1.046-.238 1.424zm-19.92-10.622c.331.556.868.617 1.084.617.216 0 .753-.06 1.085-.617l10.863-18.227a13.27 13.27 0 001.447-6.068 13.32 13.32 0 00-3.99-9.548 13.302 13.302 0 00-9.595-3.86c-7.238.1-13.162 6.078-13.205 13.326a13.272 13.272 0 001.447 6.15zm16.42 7.197L30.242 36.81l-3.224-1.437-3.766 6.318A3.756 3.756 0 0120 43.54a3.757 3.757 0 01-3.254-1.85l-3.765-6.317-3.225 1.437-5.092 10.782 5.856-2.61a1.26 1.26 0 011.027 0L20 48.75l8.453-3.767a1.26 1.26 0 011.027 0zm-9.572-31.493A5.773 5.773 0 0120 21.869c-3.178 0-5.763-2.588-5.763-5.77A5.773 5.773 0 0120 10.33a5.773 5.773 0 015.764 5.77zm-2.526 0A3.243 3.243 0 0020 12.858a3.243 3.243 0 00-3.238 3.241A3.243 3.243 0 0020 19.341a3.244 3.244 0 003.238-3.242z"/></svg>