<svg xmlns="http://www.w3.org/2000/svg" width="52" height="52"><path fill="#3e705d" d="M51.6 26c0 6.838-2.663 13.267-7.498 18.102C39.267 48.937 32.838 51.6 26 51.6c-6.838 0-13.267-2.663-18.102-7.498C3.063 39.267.4 32.838.4 26c0-6.838 2.663-13.267 7.498-18.102C12.733 3.063 19.162.4 26 .4c6.838 0 13.267 2.663 18.102 7.498C48.937 12.733 51.6 19.162 51.6 26zM35.99 13.159l-5.11.526a.03.03 0 00-.02.01l-3.395 3.203a2.315 2.315 0 01-.984.55l-2.777.749-.018.007a.067.067 0 00-.004.044l.015.01a.03.03 0 00.014.003l9.249.507c.867.047 1.627.57 1.981 1.364l.306.683a2.317 2.317 0 01-.763 2.818l-3.293 2.36a2.303 2.303 0 01-1.595.42l-4.97-.541a2.3 2.3 0 01-.64-.164l-3.588-1.497a.033.033 0 00-.033.004l-3.704 2.794a.033.033 0 00-.012.022l-.607 4.033a.033.033 0 00.004.022l2.412 4.16c.006.008.015.015.026.015l4.24.369a2.32 2.32 0 011.963 1.494l.927 2.487c.038.102 1.057 4.727 1.057 4.727a.033.033 0 00.016.021l2.1 1.23c.013.008.03.006.04-.004l3.24-3.176a.033.033 0 00.01-.022l.21-5.279a2.31 2.31 0 01.38-1.18l2.433-3.687a.033.033 0 00-.005-.042l-1.493-1.396a2.304 2.304 0 01-.7-2.06l.22-1.348a2.301 2.301 0 011.342-1.737 2.301 2.301 0 012.188.17l2.862 1.846a.034.034 0 00.043-.005l1.062-1.222c.006-.007.01-.013.007-.03-.004-.016-.011-.019-.02-.022l-.081-.03a2.282 2.282 0 01-1.493-2.02 2.282 2.282 0 011.233-2.187l1.704-.892a2.32 2.32 0 012.456.198l1.366 1.024c.009.007.014.011.03.005.018-.006.02-.013.022-.023l.229-.922a2.316 2.316 0 011.804-1.711l.59-.114a23.41 23.41 0 00-9.343-12.995l-1.125 4.675a2.312 2.312 0 01-2.008 1.756zM20.708 9.982a.318.318 0 00.484 0l4.215-4.928a2.609 2.609 0 011.006-.721l2.705-1.085c.048-.02.321-.318.321-.318a23.39 23.39 0 00-6.85-.004l.26 1.264a2.6 2.6 0 01-.25 1.738l-1.911 3.596c-.015.028-.13.291.02.458zM3.36 20.382l2.224-3.26a5.057 5.057 0 011.43-1.396l2.45-1.59a2.792 2.792 0 001.277-2.35V8.371a23.356 23.356 0 00-7.38 12.01zm8.702 21.13l-2.848-2.597a2.797 2.797 0 01-.468-.556L5.819 33.8a.517.517 0 00-.437-.24H3.934a23.425 23.425 0 007.973 11.013l.322-2.613a.519.519 0 00-.166-.447zM49.325 26a23.38 23.38 0 00-.354-4.056l-.665.128a.033.033 0 00-.026.025l-.229.921a2.303 2.303 0 01-1.466 1.619 2.303 2.303 0 01-2.16-.328l-1.365-1.024a.033.033 0 00-.035-.003l-1.705.892a.077.077 0 00-.015.01c-.004.01-.003.035.003.043l.016.008.08.03a2.31 2.31 0 01.932 3.676l-1.062 1.221a2.32 2.32 0 01-2.994.425l-2.862-1.847c-.01-.006-.015-.01-.03-.002-.017.007-.018.014-.02.025l-.22 1.35a.033.033 0 00.009.029l1.493 1.396c.824.771.971 2.015.35 2.957l-2.433 3.687a.03.03 0 00-.005.017l-.212 5.28a2.3 2.3 0 01-.69 1.556l-3.24 3.175a2.31 2.31 0 01-2.783.343l-2.1-1.23a2.317 2.317 0 01-1.089-1.499l-.965-4.414-.928-2.491a.033.033 0 00-.028-.022l-4.24-.369a2.31 2.31 0 01-1.797-1.141l-2.412-4.16a2.318 2.318 0 01-.286-1.501l.607-4.034c.09-.6.407-1.133.892-1.499l3.704-2.795a2.316 2.316 0 012.279-.287l3.588 1.497 4.98.542a.03.03 0 00.023-.006l3.293-2.36a.033.033 0 00.01-.04l-.305-.684a.033.033 0 00-.028-.02l-9.249-.506a2.324 2.324 0 01-1.02-.302 2.302 2.302 0 01-1.143-2.299A2.3 2.3 0 0123.112 16l2.777-.749a.034.034 0 00.014-.007l3.395-3.205a2.322 2.322 0 011.348-.617l5.11-.526a.033.033 0 00.03-.025s1.287-5.32 1.314-5.38a23.169 23.169 0 00-5.112-2.035l-1.021 1.188c-.27.314-.617.562-1.002.716L27.26 6.445a.317.317 0 00-.124.089l-4.215 4.927c-.837.961-1.937.908-1.974.908-.758 0-1.47-.326-1.967-.906a2.58 2.58 0 01-.576-2.192s.155-.59.274-.815l1.91-3.595a.32.32 0 00.031-.214l-.262-1.28a23.207 23.207 0 00-7.34 3.265v5.154a5.06 5.06 0 01-2.315 4.26l-2.448 1.588c-.314.203-.58.463-.79.772l-4.781 7.007a23.312 23.312 0 00.596 5.87h2.103c.956 0 1.835.48 2.352 1.286l2.928 4.562c.025.037 2.935 2.7 2.935 2.7a2.8 2.8 0 01.89 2.406l-.464 3.77A23.183 23.183 0 0026 49.324c12.861 0 23.324-10.463 23.325-23.324z"/></svg>