<svg xmlns="http://www.w3.org/2000/svg" width="52" height="48"><path fill="#3e705d" d="M32.759 12.315c-.3 2.594-2.98 4.63-6.104 4.63-1.697 0-3.229-.628-4.205-1.722a4.045 4.045 0 01-1.022-3.192c.301-2.556 3.022-4.632 6.066-4.632 1.705 0 3.25.638 4.242 1.752.795.893 1.158 2.017 1.023 3.164zm-2.86-1.532c-.517-.581-1.416-.929-2.405-.929-1.777 0-3.47 1.15-3.625 2.46-.054.475.085.905.416 1.275.502.564 1.388.9 2.37.9 1.831 0 3.509-1.126 3.662-2.458.067-.57-.19-.992-.417-1.248zm1.342 25.208c.156.27.359.827-.017 1.528-.778 1.519-3.334 3.105-5.891 3.105-.107 0-2.85.105-4.653-2.082-1.12-1.358-1.485-3.239-1.115-5.391l.002-.014c.124-.676 1.061-5.436 1.124-5.742.671-3.338-.036-3.84-.338-4.053-.196-.14-.464-.33-.648-.67-.149-.274-.337-.836.056-1.527.852-1.56 3.634-3.146 6.292-2.934 1.798.144 3.317.92 4.276 2.187 1.062 1.403 1.399 3.277.973 5.419a.552.552 0 01-.002.013c-.417 1.982-.801 3.76-1.007 4.714l-.164.762c-.58 3.345.139 3.827.446 4.033.2.133.473.317.666.652zM28.368 21.88c-.537-.71-1.405-1.132-2.51-1.22-.758-.06-1.666.133-2.491.531-.42.203-.76.43-1.01.64.87.9 1.46 2.485.743 6.051l-.003.012c-.04.19-.978 4.952-1.111 5.679-.245 1.438-.033 2.627.614 3.437.556.696 1.436 1.095 2.542 1.154.76.04 1.662-.177 2.476-.597.415-.213.749-.449.993-.666-.894-.878-1.525-2.446-.901-6.03l.002-.012c.01-.054.038-.186.178-.833.206-.951.587-2.721 1.002-4.694.284-1.431.103-2.625-.524-3.452zm20.353 24.255a1.227 1.227 0 01-1.612 1.487l-8.922-3.338C34.463 46.128 30.262 47.1 26 47.1c-6.817 0-13.23-2.42-18.06-6.814C3.078 35.863.4 29.972.4 23.7c0-6.272 2.678-12.163 7.54-16.586C12.77 2.72 19.184.3 26 .3c6.817 0 13.23 2.42 18.06 6.814 4.862 4.423 7.54 10.314 7.54 16.586 0 5.117-1.856 10.128-5.239 14.184zm-3.033-1.667l-1.872-6.544a1.227 1.227 0 01.26-1.15c3.314-3.748 5.066-8.269 5.066-13.074C49.142 12.15 38.76 2.755 26 2.755S2.858 12.151 2.858 23.7 13.239 44.644 26 44.644c4.057 0 8.048-.964 11.542-2.788a1.23 1.23 0 011-.062z"/></svg>