<svg xmlns="http://www.w3.org/2000/svg" width="52" height="45"><path d="M51.6 7.602v27.873a2.693 2.693 0 01-2.69 2.69h-4.062v3.595a2.693 2.693 0 01-2.69 2.69H3.09A2.693 2.693 0 01.4 41.76V9.525a2.693 2.693 0 012.69-2.69h4.062V3.24A2.693 2.693 0 019.842.55h12.695c.902 0 1.776.324 2.46.914L28.54 4.52c.293.253.668.392 1.054.392H48.91a2.693 2.693 0 012.69 2.69zM42.696 41.76V19.643H2.552V41.76a.54.54 0 00.538.538h39.068a.539.539 0 00.538-.538zm0-27.873a.539.539 0 00-.538-.539H22.842a3.767 3.767 0 01-2.46-.914L16.84 9.38a1.615 1.615 0 00-1.055-.392H3.09a.539.539 0 00-.538.538v7.966h40.144zm6.752 21.588V7.602a.539.539 0 00-.538-.538H29.594a3.772 3.772 0 01-2.46-.914l-3.542-3.056a1.617 1.617 0 00-1.055-.392H9.842a.538.538 0 00-.538.538v3.595h6.48a3.77 3.77 0 012.46.914l3.544 3.056c.293.252.667.391 1.054.391h19.316a2.693 2.693 0 012.69 2.69v22.127h4.062a.539.539 0 00.538-.538zM39.49 24.387c0 .594-.481 1.076-1.076 1.076H31.97a1.076 1.076 0 010-2.152h6.444c.595 0 1.076.482 1.076 1.076zm0 5.164c0 .595-.481 1.076-1.076 1.076H31.97a1.076 1.076 0 010-2.151h6.444c.595 0 1.076.481 1.076 1.075z"/></svg>