<svg xmlns="http://www.w3.org/2000/svg" width="51" height="52"><path d="M39.02 28.471a.675.675 0 00-.193.597l1.912 11.15a3.353 3.353 0 01-1.342 3.3 3.361 3.361 0 01-3.554.257L25.828 38.51a.674.674 0 00-.628 0l-10.014 5.264a3.355 3.355 0 01-3.555-.257 3.353 3.353 0 01-1.342-3.3l1.913-11.15a.675.675 0 00-.194-.597l-8.102-7.896a3.352 3.352 0 01-.854-3.459 3.354 3.354 0 012.724-2.296l11.196-1.626c.22-.032.41-.17.509-.37L22.488 2.68A3.354 3.354 0 0125.514.8c1.294 0 2.454.72 3.026 1.88l5.008 10.144c.098.2.288.338.508.37l11.197 1.626a3.353 3.353 0 012.724 2.296c.4 1.23.073 2.556-.854 3.459zm-1.883-1.932l8.102-7.896a.657.657 0 00.17-.692.657.657 0 00-.544-.46l-11.197-1.626a3.37 3.37 0 01-2.54-1.846L26.12 3.875a.657.657 0 00-.605-.376.658.658 0 00-.606.376L19.902 14.02a3.374 3.374 0 01-2.541 1.846L6.164 17.49a.658.658 0 00-.545.46c-.039.12-.1.427.171.692l8.102 7.896a3.372 3.372 0 01.97 2.986l-1.912 11.15a.657.657 0 00.269.66.657.657 0 00.71.051l10.015-5.264a3.374 3.374 0 013.14 0L37.1 41.385a.659.659 0 00.71-.05.657.657 0 00.269-.66l-1.913-11.15a3.372 3.372 0 01.97-2.986zm4.445-21.974L40.15 6.537a1.348 1.348 0 01-1.885.298 1.35 1.35 0 01-.299-1.885l1.433-1.972a1.35 1.35 0 012.184 1.587zM12.758 6.827a1.348 1.348 0 01-1.886-.299L9.44 4.558a1.35 1.35 0 112.184-1.586l1.433 1.971a1.35 1.35 0 01-.299 1.885zM4.014 32.78l-2.319.753a1.349 1.349 0 11-.834-2.567l2.318-.753a1.35 1.35 0 11.835 2.567zm22.85 14.633v2.437a1.35 1.35 0 01-2.7 0v-2.437a1.35 1.35 0 012.7 0zm24.17-14.745a1.35 1.35 0 01-1.701.867l-2.319-.754a1.35 1.35 0 11.835-2.567l2.318.754c.71.23 1.097.991.867 1.7z"/></svg>