<svg xmlns="http://www.w3.org/2000/svg" width="52" height="46"><path d="M51.6 3.29v31.074a3.094 3.094 0 01-3.091 3.09H33.083v2.248a3.743 3.743 0 003.739 3.738h3.4a1.18 1.18 0 110 2.36H11.778a1.18 1.18 0 110-2.36h3.4a3.743 3.743 0 003.739-3.738v-2.248H3.49a3.094 3.094 0 01-3.09-3.09V3.29A3.094 3.094 0 013.49.2h45.02a3.094 3.094 0 013.09 3.09zM32.008 43.44a6.064 6.064 0 01-1.286-3.738v-2.248h-9.444v2.248a6.065 6.065 0 01-1.286 3.738zM49.24 28.162H2.76v6.202c0 .402.328.73.73.73h45.02a.73.73 0 00.73-.73zm0-2.36V3.29a.731.731 0 00-.73-.73H3.49a.731.731 0 00-.73.73v22.512zM26 30.355a1.274 1.274 0 110 2.547 1.274 1.274 0 010-2.547zm2.024-20.357l-8.342 8.34a1.176 1.176 0 01-1.669 0 1.18 1.18 0 010-1.67l8.341-8.339a1.181 1.181 0 011.67 1.67zm4.944 4.833l-3.323 3.322a1.177 1.177 0 01-1.67 0 1.18 1.18 0 010-1.67l3.324-3.321a1.18 1.18 0 011.669 1.669z"/></svg>