<svg xmlns="http://www.w3.org/2000/svg" width="52" height="50"><path d="M51.6 4.997v2.13a2.298 2.298 0 01-2.294 2.297h-.312v25.804a2.298 2.298 0 01-2.294 2.297H27.147v3.369l8.5 6.24a1.149 1.149 0 01-1.358 1.852l-7.142-5.245v4.32a1.147 1.147 0 11-2.294 0v-4.32l-7.143 5.245a1.146 1.146 0 11-1.356-1.852l8.499-6.24v-3.37H5.299a2.297 2.297 0 01-2.293-2.296V9.424h-.312A2.297 2.297 0 01.4 7.128v-2.13A2.298 2.298 0 012.694 2.7h22.159V1.409a1.148 1.148 0 112.294 0v1.292h22.159A2.298 2.298 0 0151.6 4.997zm-4.9 30.23V9.425H5.3v25.804zm2.606-28.1v-2.13H2.694v2.13zM35.96 22.739c0 5.508-4.478 9.99-9.98 9.99-5.504 0-9.98-4.481-9.98-9.99 0-.57.461-1.033 1.031-1.033h7.916v-7.923c0-.571.462-1.034 1.032-1.034 5.503 0 9.98 4.482 9.98 9.99zm-2.065 0c0-4.019-3.005-7.348-6.884-7.856v7.856c0 .57-.462 1.033-1.032 1.033H18.13c.508 3.883 3.834 6.89 7.85 6.89 4.364 0 7.915-3.554 7.915-7.923zM23.517 12.713v6.529c0 .57-.462 1.033-1.033 1.033h-6.521c-.57 0-1.032-.463-1.032-1.033 0-4.17 3.388-7.563 7.553-7.563.57 0 1.033.463 1.033 1.033zm-2.065 1.13a5.508 5.508 0 00-4.36 4.365h4.36z"/></svg>