<svg xmlns="http://www.w3.org/2000/svg" width="52" height="52"><path d="M51.461 23.548v4.578c0 1.32-.981 2.46-2.282 2.655-.963.144-1.952.283-2.938.411a.29.29 0 00-.247.207 20.788 20.788 0 01-1.964 4.739.292.292 0 00.028.322c.606.789 1.208 1.586 1.787 2.369a2.7 2.7 0 01-.264 3.492l-3.236 3.236a2.699 2.699 0 01-3.492.264 160.09 160.09 0 01-2.369-1.787.293.293 0 00-.322-.028 20.796 20.796 0 01-4.74 1.964.291.291 0 00-.206.247c-.129.987-.267 1.975-.41 2.937a2.699 2.699 0 01-2.656 2.283h-4.578a2.699 2.699 0 01-2.655-2.282c-.144-.961-.282-1.95-.411-2.938a.29.29 0 00-.207-.246 20.796 20.796 0 01-4.739-1.964.293.293 0 00-.322.027c-.79.608-1.587 1.21-2.369 1.788a2.699 2.699 0 01-3.492-.264L6.141 42.32a2.7 2.7 0 01-.264-3.492c.579-.782 1.18-1.58 1.787-2.368a.292.292 0 00.028-.323A20.783 20.783 0 015.728 31.4a.29.29 0 00-.247-.206 156.04 156.04 0 01-2.937-.411A2.698 2.698 0 01.26 28.126V23.55c0-1.32.981-2.461 2.283-2.656.963-.144 1.952-.282 2.938-.41a.291.291 0 00.246-.208 20.777 20.777 0 011.964-4.738.292.292 0 00-.027-.323 158.15 158.15 0 01-1.788-2.368 2.699 2.699 0 01.264-3.492l3.236-3.237a2.7 2.7 0 013.492-.264c.782.578 1.579 1.18 2.37 1.788a.292.292 0 00.322.027 20.794 20.794 0 014.738-1.963.29.29 0 00.207-.247c.129-.989.267-1.977.411-2.938A2.699 2.699 0 0123.573.237h4.577a2.7 2.7 0 012.655 2.283c.144.961.282 1.95.411 2.938a.29.29 0 00.207.247 20.785 20.785 0 014.739 1.963c.1.057.227.046.322-.027.79-.608 1.587-1.21 2.369-1.788a2.699 2.699 0 013.492.264l3.236 3.236a2.7 2.7 0 01.264 3.492c-.58.784-1.18 1.58-1.787 2.37a.292.292 0 00-.027.322 20.783 20.783 0 011.963 4.738.29.29 0 00.247.207c.986.128 1.975.267 2.938.411a2.698 2.698 0 012.282 2.655zm-2.39 4.578V23.55a.294.294 0 00-.246-.291c-.948-.142-1.922-.278-2.893-.405a2.676 2.676 0 01-2.242-1.942 18.396 18.396 0 00-1.738-4.193 2.678 2.678 0 01.211-2.961c.598-.777 1.19-1.562 1.76-2.333a.294.294 0 00-.032-.38l-3.237-3.236a.293.293 0 00-.379-.033c-.77.57-1.555 1.162-2.333 1.76a2.678 2.678 0 01-2.96.212 18.396 18.396 0 00-4.194-1.738 2.676 2.676 0 01-1.942-2.242c-.127-.974-.263-1.947-.405-2.893a.294.294 0 00-.291-.246h-4.577a.294.294 0 00-.292.246c-.141.946-.277 1.92-.404 2.893a2.677 2.677 0 01-1.943 2.242 18.39 18.39 0 00-4.193 1.738 2.678 2.678 0 01-2.96-.21 154.519 154.519 0 00-2.334-1.761.294.294 0 00-.38.032l-3.236 3.237a.293.293 0 00-.032.379c.572.772 1.164 1.557 1.76 2.333.662.86.745 2.022.212 2.96a18.39 18.39 0 00-1.738 4.194 2.676 2.676 0 01-2.243 1.942c-.97.127-1.944.263-2.893.405a.294.294 0 00-.245.291v4.578c0 .145.105.27.245.29.949.142 1.922.279 2.894.406a2.677 2.677 0 012.242 1.941 18.387 18.387 0 001.738 4.194c.533.939.45 2.1-.212 2.96-.598.778-1.19 1.563-1.76 2.334a.293.293 0 00.032.379l3.237 3.237a.294.294 0 00.38.032c.769-.57 1.554-1.162 2.332-1.76a2.686 2.686 0 011.642-.561c.453 0 .908.115 1.32.35 1.32.75 2.73 1.334 4.193 1.737a2.677 2.677 0 011.942 2.242c.127.973.263 1.947.404 2.894.021.14.147.245.292.245h4.577c.145 0 .27-.105.29-.245.143-.948.279-1.922.406-2.894a2.677 2.677 0 011.942-2.242 18.393 18.393 0 004.193-1.738 2.68 2.68 0 012.961.211c.778.6 1.563 1.192 2.333 1.76a.294.294 0 00.38-.031l3.236-3.237a.293.293 0 00.032-.38c-.57-.77-1.163-1.556-1.76-2.332a2.678 2.678 0 01-.211-2.962 18.402 18.402 0 001.737-4.193 2.675 2.675 0 012.243-1.942 156.2 156.2 0 002.893-.405.294.294 0 00.245-.29zm-12.096-2.288c0 6.128-4.986 11.113-11.114 11.113-6.128 0-11.113-4.985-11.113-11.113 0-6.128 4.985-11.114 11.113-11.114 6.128 0 11.114 4.986 11.114 11.114zm-2.391 0c0-4.81-3.913-8.723-8.723-8.723-4.81 0-8.722 3.913-8.722 8.723 0 4.81 3.912 8.722 8.722 8.722s8.723-3.913 8.723-8.722z"/></svg>