<svg xmlns="http://www.w3.org/2000/svg" width="52" height="46"><path d="M51.6 44.29a1.21 1.21 0 01-1.21 1.21H1.61a1.21 1.21 0 010-2.422h48.78c.668 0 1.21.542 1.21 1.211zM48.446 7.425v30.08a1.21 1.21 0 01-1.21 1.21H4.764a1.21 1.21 0 01-1.21-1.21V14.327c0-.668.541-1.21 1.21-1.21h8.494c.668 0 1.21.542 1.21 1.21V24.62h6.076V1.71c0-.668.541-1.21 1.21-1.21h8.494c.668 0 1.21.542 1.21 1.21v13.947h6.076V7.426c0-.668.541-1.21 1.21-1.21h8.494c.668 0 1.21.542 1.21 1.21zm-36.398 8.113H5.972v20.755h6.076zm8.495 11.502h-6.076v9.253h6.076zm8.495-24.12h-6.076v33.373h6.076zm8.495 15.158h-6.076v18.215h6.076zm8.495 18.215V8.637h-6.076v27.657z"/></svg>